<svg id="Layer_1" data-name="Layer 1" xmlns="http://www.w3.org/2000/svg" viewBox="0 0 152.55 204.08"><defs><style>.cls-1,.cls-2{fill:#28b34b;}.cls-1{fill-rule:evenodd;}</style></defs><title>Ic_position</title><path class="cls-1" d="M117.92,21.72A71.75,71.75,0,0,0,4.53,80.14c0,55.5,71.75,115.54,71.75,115.54S108.1,169,129.36,134.85l0,.34,1.3-2.52.43-.71v-.11l8.76-17c.37-.73.72-1.48,1-2.23C145.29,102,148,91,148,80.14A71.65,71.65,0,0,0,117.92,21.72ZM76.28,120.1a41.58,41.58,0,1,1,41.57-41.57A41.57,41.57,0,0,1,76.28,120.1Z"/><path class="cls-2" d="M84.38,82.4H47c0-.59,0-1.14,0-1.68q0-8.19,0-16.39c0-2.11.9-3,3-3H81.49a2.58,2.58,0,0,1,2.88,2.85q0,8.61,0,17.22C84.38,81.69,84.38,82,84.38,82.4ZM58.73,89.89A5.12,5.12,0,1,0,63.82,95,5.1,5.1,0,0,0,58.73,89.89ZM57.25,95a1.48,1.48,0,1,1,1.46,1.45A1.48,1.48,0,0,1,57.25,95Zm38.6,5.1A5.13,5.13,0,1,0,90.75,95,5.14,5.14,0,0,0,95.85,100.14Zm1.5-5.09a1.48,1.48,0,0,1-1.48,1.43,1.47,1.47,0,0,1,0-2.94A1.51,1.51,0,0,1,97.34,95.05ZM47.07,84.14v2.25h0v4.37h0c-.12,2,.86,3.07,2.84,3.08.49,0,1,0,1.46,0s.65-.14.77-.59a6.83,6.83,0,0,1,13.19,0,.69.69,0,0,0,.81.62c5.89,0,11.78,0,17.66,0,.18,0,.37,0,.58,0V84.14Zm58.49,7.05a2.49,2.49,0,0,1-2.94,2.62,7,7,0,0,0-1.73-3.42A6.84,6.84,0,0,0,89.25,93.3c-.11.4-.25.56-.67.55-.8,0-1.61,0-2.46,0v-26c.17,0,.35,0,.54,0,3.07,0,6.14,0,9.21,0a3.17,3.17,0,0,1,2.63,1.26q3.1,3.78,6.26,7.52a3.22,3.22,0,0,1,.81,2.21c0,1,0,2,0,3a1,1,0,0,1,0,.31V86a2,2,0,0,1,0,.26C105.57,87.89,105.58,89.54,105.56,91.19Zm-4.17-12c.17,0,.45-.1.47-.2a.74.74,0,0,0-.15-.55c-1.78-2.24-3.55-4.48-5.37-6.68a1.91,1.91,0,0,0-1.22-.67c-1.9-.07-3.8,0-5.77,0v8.08a.8.8,0,0,0,.17.05Z"/></svg>