<svg id="Layer_1" data-name="Layer 1" xmlns="http://www.w3.org/2000/svg" viewBox="0 0 20.35 16.74"><defs><style>.cls-1{fill:#f78e21;}</style></defs><title>Icon</title><path class="cls-1" d="M12.53,8.86H1.67c0-.17,0-.33,0-.49q0-2.38,0-4.76c0-.61.26-.88.87-.88h9.15a.75.75,0,0,1,.84.83q0,2.5,0,5C12.53,8.65,12.53,8.74,12.53,8.86ZM5.08,11a1.49,1.49,0,1,0,1.48,1.5A1.48,1.48,0,0,0,5.08,11Zm-.43,1.49a.43.43,0,1,1,.43.42A.43.43,0,0,1,4.65,12.53ZM15.86,14a1.49,1.49,0,1,0-1.48-1.5A1.49,1.49,0,0,0,15.86,14Zm.43-1.48a.43.43,0,0,1-.43.42.43.43,0,0,1,0-.85A.44.44,0,0,1,16.29,12.53ZM1.69,9.36V10h0v1.27h0a.74.74,0,0,0,.82.89c.14,0,.28,0,.42,0s.19,0,.22-.17A2,2,0,0,1,7,12a.2.2,0,0,0,.24.18h5.3V9.36Zm17,2a.72.72,0,0,1-.85.76,2,2,0,0,0-.5-1,2,2,0,0,0-3.38.85c0,.12-.07.16-.2.16H13V4.64h2.83a.92.92,0,0,1,.76.37q.9,1.1,1.82,2.18a.93.93,0,0,1,.23.64c0,.3,0,.59,0,.89a.3.3,0,0,1,0,.09V9.89a.58.58,0,0,1,0,.08C18.68,10.45,18.68,10.93,18.68,11.41ZM17.47,7.92s.13,0,.14-.06a.22.22,0,0,0,0-.16c-.52-.65-1-1.3-1.56-1.94a.56.56,0,0,0-.36-.19c-.55,0-1.1,0-1.67,0V7.91l0,0Z"/></svg>